<svg width="210" height="25" fill="none" xmlns="http://www.w3.org/2000/svg"><path d="M14.719 20.58H4.604v-5.459h10.115c2.527 0 3.82 1.226 3.82 2.815 0 1.53-1.265 2.645-3.82 2.645zm-.33-8.382H4.605V7.6h9.786c2.663 0 3.709.952 3.709 2.257 0 1.198-1.21 2.34-3.71 2.34zm2.585 1.392c4.26-.14 5.8-2.285 5.8-4.623-.003-2.565-2.01-4.681-6.902-4.681H.235V23.84h16.104c4.013 0 7.01-1.697 7.01-5.347 0-2.59-1.677-4.79-6.378-4.903h.003zM27.57 4.286V23.84h4.376V4.286H27.57zM50.355 7.99h9.631V4.286h-23.61V7.99h9.62v15.85h4.369l-.01-15.85zm14.066-3.704V23.84h4.37v-7.619h10.252v-3.216H68.79V7.657h16.657V4.286H64.42zm25.74 0V23.84h4.37V4.286h-4.37zm13.206 4.762l14.482 14.79h4.947V4.286h-4.313V18.38L104.575 4.286h-5.551V23.84h4.343V9.048zm23.925-4.762V23.84h21.376v-3.285h-17.007v-5.377h10.197v-3.035h-10.197V7.657h17.011V4.286h-21.38zm51.584 0h-5.772l-7.364 6.88-7.312-6.88h-5.854l10.279 9.638-10.664 9.916h5.774l7.721-7.214 7.695 7.214h5.873l-10.681-9.945 10.305-9.61z" fill="#fff"/><path d="M209.079.476c-.087-.038-9.098-1.28-18.005 4.524-5.529 3.612-6.262 8.895-6.009 12.419C198.02 15.967 208.785.898 209.079.476zm-23.135 20.857c1.113 1.986 9.53 6.488 16.981.279 7.451-6.21 6.826-17.507 6.154-21.136-.235.526-8.369 18.584-23.135 20.855" fill="#98E35D"/><path d="M209.079.476c-.087-.035-9.098-1.28-18.005 4.524-5.529 3.612-6.262 8.895-6.009 12.417 12.955-1.45 23.72-16.52 24.014-16.94z" fill="#16B157"/></svg>