<svg version="1.1" id="Layer_1" xmlns="http://www.w3.org/2000/svg" xmlns:xlink="http://www.w3.org/1999/xlink" x="0" y="0" viewBox="0 0 49 49" xml:space="preserve"><style>.st1{fill:#fff}</style><defs><path id="SVGID_1_" d="M11 11h27v27H11z"/></defs><clipPath id="SVGID_2_"><use xlink:href="#SVGID_1_" overflow="visible"/></clipPath><g clip-path="url(#SVGID_2_)"><path class="st1" d="M11 11v12.3h12.3V11H11zm10.6 10.6h-8.8v-8.8h8.8v8.8z"/><path class="st1" d="M18.3 16H16v2.3h2.3V16zm7.4-5v12.3H38V11H25.7zm10.5 10.6h-8.8v-8.8h8.8v8.8z"/><path class="st1" d="M33 16h-2.3v2.3H33V16zm-22 9.7V38h12.3V25.7H11zm10.6 10.5h-8.8v-8.8h8.8v8.8z"/><path class="st1" d="M18.3 30.7H16V33h2.3v-2.3zm10.9-3.3v-1.8h-3.5V38h3.5v-1.8h-1.8v-3.5h1.8V31h-1.8v-3.5h1.8zm8.8-1.7h-1.8v1.8H38v-1.8zm-1.8 4.1v6.5h-1.8V38H38v-8.2h-1.8zm-1.7-4.1H31v1.8h3.5v-1.8zm0 5.3v-1.8H31v5.3h3.5v-1.8h-1.8V31h1.8zm-1.8 5.2H31V38h1.8v-1.8z"/></g><path opacity=".5" fill="none" stroke="#fff" d="M.5.5h48v48H.5z"/></svg>