<svg xmlns="http://www.w3.org/2000/svg" viewBox="0 0 152 49"><path d="M35.4 20.2L19.6 11l12.5 12.6 3.3-3.4zm-17.3-9.1c-.1.1-.1.2-.1.4v26c0 .1 0 .2.1.2l13.2-13.4-13.2-13.2zm14 14l-13 13.1s.1 0 .1-.1l16.4-9.5-3.5-3.5zm9.5-1.3l-5.2-3-3.5 3.6 3.7 3.8 5-2.9c.5-.4.5-1.2 0-1.5z" fill-rule="evenodd" clip-rule="evenodd" fill="#fff"/><path d="M51.6 19v-7.1h2.2c.6 0 1.2.1 1.7.4.5.3.9.7 1.2 1.2.3.5.4 1.1.4 1.8v.3c0 .7-.1 1.2-.4 1.8-.3.5-.7.9-1.1 1.2-.6.3-1.1.4-1.8.4h-2.2zm1.5-5.9v4.7h.7c.6 0 1-.2 1.3-.6.3-.4.5-.9.5-1.6v-.4c0-.7-.1-1.3-.4-1.6-.3-.4-.7-.6-1.3-.6h-.8zm5.2 3.2c0-.5.1-1 .3-1.4.2-.4.5-.7.9-1 .4-.2.8-.3 1.3-.3.7 0 1.3.2 1.7.7.5.4.7 1 .8 1.8v.4c0 .8-.2 1.5-.7 2-.5.5-1.1.7-1.8.7-.8 0-1.4-.2-1.8-.7-.4-.6-.7-1.3-.7-2.2zm1.4.1c0 .5.1.9.3 1.2.2.3.5.4.8.4.3 0 .6-.1.8-.4.2-.3.3-.7.3-1.3 0-.5-.1-.9-.3-1.1-.2-.3-.5-.4-.8-.4-.3 0-.6.1-.8.4-.2.2-.3.6-.3 1.2zm9.6.7l.7-3.4h1.4L70 19h-1.2l-1-3.3-1 3.3h-1.2l-1.3-5.3h1.4l.7 3.4 1-3.4h1l.9 3.4zm4.6-3.4v.6c.4-.5.9-.7 1.5-.7s1 .2 1.2.5c.3.3.4.8.4 1.5V19h-1.4v-3.4c0-.3-.1-.5-.2-.6-.1-.1-.3-.2-.6-.2-.4 0-.7.2-.9.5V19h-1.4v-5.3h1.4zm6.2 5.3h-1.4v-7.5h1.4V19zm1.5-2.7c0-.5.1-1 .3-1.4.2-.4.5-.7.9-1 .4-.2.8-.3 1.3-.3.7 0 1.3.2 1.7.7.5.4.7 1 .8 1.8v.4c0 .8-.2 1.5-.7 2-.5.5-1.1.7-1.8.7-.8 0-1.4-.2-1.8-.7-.5-.6-.7-1.3-.7-2.2zm1.4.1c0 .5.1.9.3 1.2.2.3.5.4.8.4.3 0 .6-.1.8-.4.2-.3.3-.7.3-1.3 0-.5-.1-.9-.3-1.1-.2-.3-.5-.4-.8-.4-.3 0-.6.1-.8.4-.2.2-.3.6-.3 1.2zm8 2.6c-.1-.1-.1-.3-.1-.5-.3.4-.8.6-1.3.6s-.9-.1-1.3-.4c-.3-.3-.5-.7-.5-1.1 0-.6.2-1 .6-1.3.4-.3 1-.5 1.8-.5h.6v-.3c0-.2-.1-.4-.2-.6-.1-.1-.3-.2-.6-.2-.2 0-.4.1-.6.2-.1.1-.2.3-.2.5h-1.4c0-.3.1-.6.3-.8.2-.3.5-.5.8-.6.3-.1.7-.2 1.2-.2.7 0 1.2.2 1.5.5.4.3.6.8.6 1.4V18c0 .5.1.9.2 1.1V19H91zm-1.1-1c.2 0 .4 0 .6-.1.2-.1.3-.2.4-.4v-.9h-.5c-.7 0-1.1.2-1.1.7v.1c0 .2.1.3.2.4 0 .2.1.2.4.2zm3.7-1.7c0-.8.2-1.5.6-2 .4-.5.9-.7 1.5-.7.5 0 .9.2 1.3.6v-2.7h1.4V19h-1.3l-.1-.6c-.4.4-.8.7-1.4.7-.6 0-1.1-.2-1.5-.7-.3-.5-.5-1.2-.5-2.1zm1.4.1c0 .5.1.9.3 1.1.2.3.4.4.8.4s.7-.2.9-.6v-2.1c-.2-.4-.5-.6-.9-.6-.7.2-1.1.7-1.1 1.8zm8.3 2.6v-4.2h-.8v-1h.8v-.4c0-.6.2-1.1.5-1.4.3-.3.8-.5 1.4-.5.2 0 .4 0 .7.1v1.1h-.4c-.5 0-.8.2-.8.7v.4h1v1h-1V19h-1.4zm3.5-2.7c0-.5.1-1 .3-1.4.2-.4.5-.7.9-1 .4-.2.8-.3 1.3-.3.7 0 1.3.2 1.7.7.5.4.7 1 .8 1.8v.4c0 .8-.2 1.5-.7 2-.5.5-1.1.7-1.8.7-.8 0-1.4-.2-1.8-.7-.5-.6-.7-1.3-.7-2.2zm1.4.1c0 .5.1.9.3 1.2.2.3.5.4.8.4.3 0 .6-.1.8-.4.2-.3.3-.7.3-1.3 0-.5-.1-.9-.3-1.1s-.5-.4-.8-.4c-.3 0-.6.1-.8.4-.2.2-.3.6-.3 1.2zm8-1.4h-.5c-.5 0-.9.2-1 .5V19h-1.4v-5.3h1.3v.6c.3-.5.7-.7 1.2-.7.2 0 .3 0 .4.1V15z" opacity=".5" fill="#fff"/><path d="M60 34.7c-.3.4-.8.8-1.5 1-.7.2-1.4.4-2.2.4-.8 0-1.6-.2-2.2-.6-.6-.4-1.2-1-1.5-1.7-.4-.7-.5-1.6-.5-2.5V30c0-1.5.4-2.6 1.1-3.5.7-.9 1.8-1.3 3-1.3 1.1 0 2 .3 2.7.8.7.6 1.1 1.3 1.2 2.3h-.9c-.1-.8-.5-1.4-1-1.8-.5-.4-1.2-.6-2-.6-1 0-1.8.4-2.4 1.1-.6.7-.9 1.7-.9 3v1.3c0 .8.1 1.5.4 2.2.3.6.7 1.1 1.2 1.4.5.3 1.1.5 1.8.5.8 0 1.4-.1 2-.4.4-.2.6-.3.8-.6v-2.8h-2.9v-.8H60v3.9zm2.2-2.8c0-.8.1-1.4.4-2.1.3-.6.7-1.1 1.3-1.4.5-.3 1.2-.5 1.8-.5 1.1 0 1.9.4 2.6 1.1.7.7 1 1.7 1 2.9v.2c0 .8-.1 1.5-.4 2.1-.3.6-.7 1.1-1.2 1.4-.5.3-1.1.5-1.8.5-1 0-1.9-.4-2.6-1.1-.7-.7-1-1.7-1-2.9v-.2zm.9.3c0 .9.2 1.7.7 2.3.5.6 1.1.9 1.9.9.8 0 1.4-.3 1.9-.9.5-.6.7-1.4.7-2.4v-.2c0-.6-.1-1.2-.3-1.7-.2-.5-.5-.9-.9-1.2-.4-.3-.9-.4-1.4-.4-.8 0-1.4.3-1.9.9-.5.6-.7 1.4-.7 2.4v.3zm7.8-.3c0-.8.1-1.4.4-2.1.3-.6.7-1.1 1.3-1.4.5-.3 1.2-.5 1.8-.5 1.1 0 1.9.4 2.6 1.1.7.7 1 1.7 1 2.9v.2c0 .8-.1 1.5-.4 2.1-.3.6-.7 1.1-1.2 1.4-.5.3-1.1.5-1.8.5-1 0-1.9-.4-2.6-1.1-.7-.7-1-1.7-1-2.9v-.2zm.9.3c0 .9.2 1.7.7 2.3.5.6 1.1.9 1.9.9.8 0 1.4-.3 1.9-.9.5-.6.7-1.4.7-2.4v-.2c0-.6-.1-1.2-.3-1.7-.2-.5-.5-.9-.9-1.2-.4-.3-.9-.4-1.4-.4-.8 0-1.4.3-1.9.9-.5.7-.7 1.5-.7 2.5v.2zm8-.2c0-1.2.3-2.2.8-2.9.6-.7 1.3-1.1 2.2-1.1 1.1 0 1.9.4 2.5 1.3v-1.1h.8V36c0 1-.3 1.8-.9 2.4s-1.3.9-2.3.9c-.6 0-1.1-.1-1.6-.4-.5-.2-.9-.6-1.2-1l.5-.5c.6.8 1.4 1.1 2.2 1.1.7 0 1.3-.2 1.7-.7.4-.4.6-1 .6-1.8v-1c-.6.8-1.4 1.2-2.5 1.2-.9 0-1.7-.4-2.2-1.1-.6-.7-.8-1.7-.8-3V32zm.8.1c0 1 .2 1.8.6 2.4.4.6 1 .9 1.7.9 1.1 0 1.8-.5 2.3-1.5v-3.7c-.2-.5-.5-.9-.9-1.2-.4-.3-.8-.4-1.4-.4-.7 0-1.3.3-1.7.9-.3.6-.6 1.5-.6 2.6zm9.1 3.9h-.9V24.7h.9V36zm5.8.1c-.7 0-1.3-.2-1.8-.5s-1-.8-1.3-1.4c-.3-.6-.5-1.3-.5-2v-.3c0-.8.1-1.4.4-2.1.3-.6.7-1.1 1.2-1.4.5-.4 1.1-.5 1.7-.5 1 0 1.7.3 2.3 1 .6.7.8 1.6.8 2.7v.5h-5.7v.2c0 .9.3 1.6.8 2.2.5.6 1.2.9 1.9.9.5 0 .9-.1 1.2-.3.4-.2.7-.4 1-.8l.5.4c-.4 1-1.3 1.4-2.5 1.4zm-.2-7.4c-.7 0-1.2.2-1.7.7-.4.5-.7 1.1-.8 1.9h4.8v-.1c0-.8-.2-1.4-.7-1.9-.4-.4-.9-.6-1.6-.6zm10.2 3V36h-.9V25.3h3.6c1.1 0 2 .3 2.6.8.6.6 1 1.3 1 2.3 0 1-.3 1.8-.9 2.3-.6.5-1.5.8-2.7.8h-2.7zm0-.8h2.7c.9 0 1.5-.2 2-.6.5-.4.7-1 .7-1.7s-.2-1.3-.7-1.8c-.5-.4-1.1-.7-1.9-.7h-2.8v4.8zm9.4 5.1h-.9V24.7h.9V36zm7.7 0c-.1-.2-.1-.6-.2-1.1-.3.4-.7.7-1.2.9-.5.2-1 .3-1.5.3-.8 0-1.4-.2-1.9-.6-.5-.4-.7-1-.7-1.6 0-.8.3-1.4 1-1.8.6-.4 1.5-.7 2.7-.7h1.6v-.9c0-.6-.2-1-.5-1.3-.3-.3-.9-.5-1.5-.5s-1.1.2-1.5.5-.6.7-.6 1.1h-.9c0-.6.3-1.2.9-1.6.6-.5 1.3-.7 2.2-.7.9 0 1.6.2 2.1.7.5.4.8 1.1.8 1.8v3.7c0 .8.1 1.3.2 1.7v.1h-1zm-2.7-.6c.6 0 1.1-.1 1.6-.4.5-.3.8-.7 1-1.1v-1.7h-1.6c-.9 0-1.6.2-2.1.5s-.7.7-.7 1.3c0 .4.2.8.5 1.1.3.1.7.3 1.3.3zm8.4-.7l2.3-6.7h.9l-3.4 9.3-.2.4c-.4 1-1.1 1.4-2 1.4-.2 0-.4 0-.7-.1v-.7h.5c.4 0 .8-.1 1-.3.3-.2.5-.6.7-1.1l.4-1.1-3-7.9h1l2.5 6.8z" fill="#fff"/><path opacity=".5" fill="none" stroke="#fff" d="M.5.5h151v48H.5z"/></svg>