<svg width="210" height="25" viewBox="0 0 210 25" fill="none" xmlns="http://www.w3.org/2000/svg">
<path d="M14.7186 20.5809H4.60387V15.1213H14.7186C17.2462 15.1213 18.5381 16.3475 18.5381 17.9356C18.5381 19.4666 17.2743 20.5809 14.7186 20.5809ZM14.3898 12.1975H4.60387V7.59991H14.3898C17.0535 7.59991 18.0988 8.55229 18.0988 9.85705C18.0988 11.0547 16.8891 12.1975 14.3898 12.1975ZM16.9737 13.5904C21.2347 13.4499 22.7733 11.3047 22.7733 8.96658C22.771 6.40229 20.7649 4.28563 15.872 4.28563H0.234741V23.8404H16.3394C20.3515 23.8404 23.3488 22.1428 23.3488 18.4928C23.3488 15.9023 21.6717 13.7023 16.9713 13.5904H16.9737ZM27.57 4.28563V23.8404H31.9462V4.28563H27.57ZM50.3552 7.99039H59.9861V4.28563H36.3764V7.99039H45.9955V23.8404H50.3646L50.3552 7.99039ZM64.421 4.28563V23.8404H68.7901V16.2213H79.0435V13.0047H68.7901V7.65705H85.4468V4.28563H64.421ZM90.1613 4.28563V23.8404H94.5304V4.28563H90.1613ZM103.367 9.04753L117.849 23.838H122.796V4.28563H118.483V18.3809L104.575 4.28563H99.024V23.8404H103.367V9.04753ZM127.292 4.28563V23.8404H148.668V20.5547H131.661V15.1785H141.858V12.1428H131.661V7.65705H148.672V4.28563H127.292ZM178.876 4.28563H173.104L165.74 11.1666L158.428 4.28563H152.574L162.853 13.9237L152.189 23.8404H157.963L165.684 16.6261L173.379 23.8404H179.252L168.571 13.8951L178.876 4.28563Z" fill="white"/>
<path d="M209.079 0.476162C208.992 0.438067 199.981 -0.80479 191.074 4.99997C185.545 8.61188 184.812 13.8952 185.065 17.419C198.02 15.9666 208.785 0.897591 209.079 0.476162ZM185.944 21.3333C187.057 23.319 195.474 27.8214 202.925 21.6119C210.376 15.4024 209.751 4.10473 209.079 0.476162C208.844 1.00235 200.71 19.0595 185.944 21.3309" fill="#98E35D"/>
<path d="M209.079 0.476246C208.992 0.440532 199.981 -0.804706 191.074 5.00006C185.545 8.61196 184.812 13.8953 185.065 17.4167C198.02 15.9667 208.785 0.897674 209.079 0.476246Z" fill="#16B157"/>
</svg>
