<?xml version="1.0" encoding="utf-8"?>
<!-- Generator: Adobe Illustrator 24.0.3, SVG Export Plug-In . SVG Version: 6.00 Build 0)  -->
<svg version="1.1" id="Layer_1" xmlns="http://www.w3.org/2000/svg" xmlns:xlink="http://www.w3.org/1999/xlink" x="0px" y="0px"
	 viewBox="0 0 152 49" style="enable-background:new 0 0 152 49;" xml:space="preserve">
<style type="text/css">
	.st0{opacity:0.5;fill:#FFFFFF;enable-background:new    ;}
	.st1{fill:#FFFFFF;}
	.st2{opacity:0.5;fill:none;stroke:#FFFFFF;}
	.st3{fill-rule:evenodd;clip-rule:evenodd;fill:#FFFFFF;}
</style>
<path class="st0" d="M51.6,19v-7.1h2.2c0.6,0,1.2,0.1,1.7,0.4c0.5,0.3,0.9,0.7,1.2,1.2c0.3,0.5,0.4,1.1,0.4,1.8v0.3
	c0,0.7-0.1,1.2-0.4,1.8c-0.3,0.5-0.7,0.9-1.1,1.2C55,18.9,54.5,19,53.8,19H51.6z M53.1,13.1v4.7h0.7c0.6,0,1-0.2,1.3-0.6
	c0.3-0.4,0.5-0.9,0.5-1.6v-0.4c0-0.7-0.1-1.3-0.4-1.6c-0.3-0.4-0.7-0.6-1.3-0.6H53.1z M58.3,16.3c0-0.5,0.1-1,0.3-1.4
	c0.2-0.4,0.5-0.7,0.9-1c0.4-0.2,0.8-0.3,1.3-0.3c0.7,0,1.3,0.2,1.7,0.7c0.5,0.4,0.7,1,0.8,1.8l0,0.4c0,0.8-0.2,1.5-0.7,2
	c-0.5,0.5-1.1,0.7-1.8,0.7c-0.8,0-1.4-0.2-1.8-0.7C58.6,17.9,58.3,17.2,58.3,16.3L58.3,16.3z M59.7,16.4c0,0.5,0.1,0.9,0.3,1.2
	c0.2,0.3,0.5,0.4,0.8,0.4c0.3,0,0.6-0.1,0.8-0.4c0.2-0.3,0.3-0.7,0.3-1.3c0-0.5-0.1-0.9-0.3-1.1c-0.2-0.3-0.5-0.4-0.8-0.4
	c-0.3,0-0.6,0.1-0.8,0.4C59.8,15.4,59.7,15.8,59.7,16.4z M69.3,17.1l0.7-3.4h1.4L70,19h-1.2l-1-3.3l-1,3.3h-1.2l-1.3-5.3h1.4
	l0.7,3.4l1-3.4h1L69.3,17.1z M73.9,13.7l0,0.6c0.4-0.5,0.9-0.7,1.5-0.7c0.6,0,1,0.2,1.2,0.5c0.3,0.3,0.4,0.8,0.4,1.5V19h-1.4v-3.4
	c0-0.3-0.1-0.5-0.2-0.6c-0.1-0.1-0.3-0.2-0.6-0.2c-0.4,0-0.7,0.2-0.9,0.5V19h-1.4v-5.3H73.9z M80.1,19h-1.4v-7.5h1.4V19z M81.6,16.3
	c0-0.5,0.1-1,0.3-1.4c0.2-0.4,0.5-0.7,0.9-1c0.4-0.2,0.8-0.3,1.3-0.3c0.7,0,1.3,0.2,1.7,0.7c0.5,0.4,0.7,1,0.8,1.8l0,0.4
	c0,0.8-0.2,1.5-0.7,2c-0.5,0.5-1.1,0.7-1.8,0.7c-0.8,0-1.4-0.2-1.8-0.7C81.8,17.9,81.6,17.2,81.6,16.3L81.6,16.3z M83,16.4
	c0,0.5,0.1,0.9,0.3,1.2c0.2,0.3,0.5,0.4,0.8,0.4c0.3,0,0.6-0.1,0.8-0.4c0.2-0.3,0.3-0.7,0.3-1.3c0-0.5-0.1-0.9-0.3-1.1
	c-0.2-0.3-0.5-0.4-0.8-0.4c-0.3,0-0.6,0.1-0.8,0.4C83.1,15.4,83,15.8,83,16.4z M91,19c-0.1-0.1-0.1-0.3-0.1-0.5
	c-0.3,0.4-0.8,0.6-1.3,0.6c-0.5,0-0.9-0.1-1.3-0.4c-0.3-0.3-0.5-0.7-0.5-1.1c0-0.6,0.2-1,0.6-1.3c0.4-0.3,1-0.5,1.8-0.5h0.6v-0.3
	c0-0.2-0.1-0.4-0.2-0.6c-0.1-0.1-0.3-0.2-0.6-0.2c-0.2,0-0.4,0.1-0.6,0.2c-0.1,0.1-0.2,0.3-0.2,0.5h-1.4c0-0.3,0.1-0.6,0.3-0.8
	c0.2-0.3,0.5-0.5,0.8-0.6c0.3-0.1,0.7-0.2,1.2-0.2c0.7,0,1.2,0.2,1.5,0.5c0.4,0.3,0.6,0.8,0.6,1.4v2.3c0,0.5,0.1,0.9,0.2,1.1V19H91z
	 M89.9,18c0.2,0,0.4,0,0.6-0.1c0.2-0.1,0.3-0.2,0.4-0.4v-0.9h-0.5c-0.7,0-1.1,0.2-1.1,0.7l0,0.1c0,0.2,0.1,0.3,0.2,0.4
	C89.5,18,89.6,18,89.9,18z M93.6,16.3c0-0.8,0.2-1.5,0.6-2c0.4-0.5,0.9-0.7,1.5-0.7c0.5,0,0.9,0.2,1.3,0.6v-2.7h1.4V19h-1.3L97,18.4
	c-0.4,0.4-0.8,0.7-1.4,0.7c-0.6,0-1.1-0.2-1.5-0.7C93.8,17.9,93.6,17.2,93.6,16.3z M95,16.4c0,0.5,0.1,0.9,0.3,1.1
	c0.2,0.3,0.4,0.4,0.8,0.4c0.4,0,0.7-0.2,0.9-0.6v-2.1c-0.2-0.4-0.5-0.6-0.9-0.6C95.4,14.8,95,15.3,95,16.4z M103.3,19v-4.2h-0.8v-1
	h0.8v-0.4c0-0.6,0.2-1.1,0.5-1.4c0.3-0.3,0.8-0.5,1.4-0.5c0.2,0,0.4,0,0.7,0.1l0,1.1c-0.1,0-0.3,0-0.4,0c-0.5,0-0.8,0.2-0.8,0.7v0.4
	h1v1h-1V19H103.3z M106.8,16.3c0-0.5,0.1-1,0.3-1.4c0.2-0.4,0.5-0.7,0.9-1c0.4-0.2,0.8-0.3,1.3-0.3c0.7,0,1.3,0.2,1.7,0.7
	c0.5,0.4,0.7,1,0.8,1.8l0,0.4c0,0.8-0.2,1.5-0.7,2c-0.5,0.5-1.1,0.7-1.8,0.7c-0.8,0-1.4-0.2-1.8-0.7C107,17.9,106.8,17.2,106.8,16.3
	L106.8,16.3z M108.2,16.4c0,0.5,0.1,0.9,0.3,1.2c0.2,0.3,0.5,0.4,0.8,0.4c0.3,0,0.6-0.1,0.8-0.4c0.2-0.3,0.3-0.7,0.3-1.3
	c0-0.5-0.1-0.9-0.3-1.1s-0.5-0.4-0.8-0.4c-0.3,0-0.6,0.1-0.8,0.4C108.3,15.4,108.2,15.8,108.2,16.4z M116.2,15c-0.2,0-0.4,0-0.5,0
	c-0.5,0-0.9,0.2-1,0.5V19h-1.4v-5.3h1.3l0,0.6c0.3-0.5,0.7-0.7,1.2-0.7c0.2,0,0.3,0,0.4,0.1L116.2,15z"/>
<path class="st1" d="M58.1,33h-4.8l-1.1,3h-0.9l4-10.7h0.9l4,10.7h-0.9L58.1,33z M53.5,32.2h4.3l-2.1-5.8L53.5,32.2z M68.2,32.1
	c0,1.2-0.3,2.2-0.8,2.9c-0.5,0.7-1.3,1.1-2.2,1.1c-1.1,0-1.9-0.4-2.5-1.1v4h-0.9v-11h0.8l0,1.1c0.6-0.8,1.4-1.3,2.5-1.3
	c0.9,0,1.7,0.4,2.2,1.1c0.5,0.7,0.8,1.7,0.8,3V32.1z M67.3,32c0-1-0.2-1.8-0.6-2.4c-0.4-0.6-1-0.9-1.7-0.9c-0.5,0-1,0.1-1.4,0.4
	c-0.4,0.3-0.7,0.6-0.9,1.1V34c0.2,0.5,0.5,0.8,0.9,1c0.4,0.2,0.9,0.4,1.4,0.4c0.7,0,1.3-0.3,1.7-0.9C67.1,33.9,67.3,33.1,67.3,32z
	 M76.8,32.1c0,1.2-0.3,2.2-0.8,2.9c-0.5,0.7-1.3,1.1-2.2,1.1c-1.1,0-1.9-0.4-2.5-1.1v4h-0.9v-11h0.8l0,1.1c0.6-0.8,1.4-1.3,2.5-1.3
	c0.9,0,1.7,0.4,2.2,1.1c0.5,0.7,0.8,1.7,0.8,3V32.1z M75.9,32c0-1-0.2-1.8-0.6-2.4c-0.4-0.6-1-0.9-1.7-0.9c-0.5,0-1,0.1-1.4,0.4
	c-0.4,0.3-0.7,0.6-0.9,1.1V34c0.2,0.5,0.5,0.8,0.9,1c0.4,0.2,0.9,0.4,1.4,0.4c0.7,0,1.3-0.3,1.7-0.9C75.7,33.9,75.9,33.1,75.9,32z
	 M85.3,33.4c0-0.6-0.2-1.1-0.6-1.4c-0.4-0.3-1.2-0.7-2.3-1c-1.1-0.3-1.9-0.7-2.4-1c-0.7-0.5-1.1-1.2-1.1-2c0-0.8,0.3-1.5,1-2
	c0.7-0.5,1.5-0.8,2.6-0.8c0.7,0,1.3,0.1,1.9,0.4c0.6,0.3,1,0.7,1.3,1.1c0.3,0.5,0.5,1,0.5,1.6h-0.9c0-0.7-0.2-1.3-0.7-1.8
	c-0.5-0.4-1.2-0.7-2-0.7c-0.8,0-1.5,0.2-1.9,0.5c-0.5,0.4-0.7,0.8-0.7,1.4c0,0.5,0.2,1,0.7,1.3c0.4,0.3,1.1,0.6,2.1,0.9
	c1,0.3,1.7,0.5,2.2,0.8c0.5,0.3,0.9,0.6,1.1,1c0.2,0.4,0.4,0.9,0.4,1.4c0,0.8-0.3,1.5-1,2c-0.7,0.5-1.6,0.8-2.7,0.8
	c-0.8,0-1.4-0.1-2.1-0.4c-0.6-0.3-1.1-0.6-1.4-1.1c-0.3-0.5-0.5-1-0.5-1.7h0.9c0,0.8,0.3,1.3,0.8,1.8c0.6,0.4,1.3,0.7,2.2,0.7
	c0.8,0,1.5-0.2,2-0.5C85,34.5,85.3,34,85.3,33.4z M89.6,26v2h1.6v0.7h-1.6v5.3c0,0.4,0.1,0.8,0.2,1c0.2,0.2,0.4,0.3,0.8,0.3
	c0.1,0,0.4,0,0.7-0.1l0,0.7c-0.2,0.1-0.5,0.1-0.9,0.1c-0.6,0-1-0.2-1.3-0.5c-0.3-0.4-0.4-0.9-0.4-1.5v-5.3h-1.5v-0.7h1.5v-2H89.6z
	 M92.7,31.9c0-0.8,0.1-1.4,0.4-2.1c0.3-0.6,0.7-1.1,1.3-1.4c0.5-0.3,1.2-0.5,1.8-0.5c1.1,0,1.9,0.4,2.6,1.1c0.7,0.7,1,1.7,1,2.9v0.2
	c0,0.8-0.1,1.5-0.4,2.1c-0.3,0.6-0.7,1.1-1.2,1.4c-0.5,0.3-1.1,0.5-1.8,0.5c-1,0-1.9-0.4-2.6-1.1c-0.7-0.7-1-1.7-1-2.9V31.9z
	 M93.6,32.2c0,0.9,0.2,1.7,0.7,2.3c0.5,0.6,1.1,0.9,1.9,0.9c0.8,0,1.4-0.3,1.9-0.9c0.5-0.6,0.7-1.4,0.7-2.4v-0.2
	c0-0.6-0.1-1.2-0.3-1.7c-0.2-0.5-0.5-0.9-0.9-1.2c-0.4-0.3-0.9-0.4-1.4-0.4c-0.8,0-1.4,0.3-1.9,0.9c-0.5,0.6-0.7,1.4-0.7,2.4V32.2z
	 M105.6,28.8c-0.2,0-0.4-0.1-0.6-0.1c-0.5,0-1,0.2-1.4,0.5c-0.4,0.3-0.6,0.7-0.8,1.3V36h-0.9v-7.9h0.9l0,1.3
	c0.5-0.9,1.2-1.4,2.2-1.4c0.2,0,0.4,0,0.6,0.1L105.6,28.8z M110.2,36.1c-0.7,0-1.3-0.2-1.8-0.5c-0.5-0.3-1-0.8-1.3-1.4
	c-0.3-0.6-0.5-1.3-0.5-2v-0.3c0-0.8,0.1-1.4,0.4-2.1c0.3-0.6,0.7-1.1,1.2-1.4c0.5-0.4,1.1-0.5,1.7-0.5c1,0,1.7,0.3,2.3,1
	c0.6,0.7,0.8,1.6,0.8,2.7v0.5h-5.7v0.2c0,0.9,0.3,1.6,0.8,2.2c0.5,0.6,1.2,0.9,1.9,0.9c0.5,0,0.9-0.1,1.2-0.3c0.4-0.2,0.7-0.4,1-0.8
	l0.5,0.4C112.4,35.7,111.4,36.1,110.2,36.1z M110,28.7c-0.7,0-1.2,0.2-1.7,0.7c-0.4,0.5-0.7,1.1-0.8,1.9h4.8v-0.1
	c0-0.8-0.2-1.4-0.7-1.9C111.2,28.9,110.7,28.7,110,28.7z"/>
<rect x="0.5" y="0.5" class="st2" width="151" height="48"/>
<path class="st3" d="M41.5,30.8c-0.6,1.4-0.9,2-1.8,3.3C38.6,35.8,37,38,35,38c-1.8,0-2.2-1.2-4.6-1.1c-2.4,0-2.9,1.2-4.7,1.1
	c-2,0-3.5-2-4.7-3.7c-3.2-4.8-3.5-10.5-1.6-13.5c1.4-2.2,3.6-3.4,5.7-3.4c2.1,0,3.4,1.2,5.2,1.2c1.7,0,2.7-1.2,5.2-1.2
	c1.9,0,3.8,1,5.2,2.7C36.1,22.6,36.9,29.1,41.5,30.8z"/>
<path class="st3" d="M33.7,15.4c0.9-1.1,1.6-2.7,1.3-4.4c-1.5,0.1-3.1,1-4.1,2.2c-0.9,1.1-1.6,2.7-1.4,4.3
	C31.1,17.6,32.7,16.6,33.7,15.4z"/>
</svg>
