<?xml version="1.0" encoding="utf-8"?>
<!-- Generator: Adobe Illustrator 24.0.3, SVG Export Plug-In . SVG Version: 6.00 Build 0)  -->
<svg version="1.1" id="Layer_1" xmlns="http://www.w3.org/2000/svg" xmlns:xlink="http://www.w3.org/1999/xlink" x="0px" y="0px"
	 viewBox="0 0 49 49" style="enable-background:new 0 0 49 49;" xml:space="preserve">
<style type="text/css">
	.st0{clip-path:url(#SVGID_2_);}
	.st1{fill:#FFFFFF;}
	.st2{opacity:0.5;fill:none;stroke:#FFFFFF;}
</style>
<g>
	<defs>
		<rect id="SVGID_1_" x="11" y="11" width="27" height="27"/>
	</defs>
	<clipPath id="SVGID_2_">
		<use xlink:href="#SVGID_1_"  style="overflow:visible;"/>
	</clipPath>
	<g class="st0">
		<path class="st1" d="M11,11v12.3h12.3V11H11z M21.6,21.6h-8.8v-8.8h8.8V21.6z"/>
		<path class="st1" d="M18.3,16H16v2.3h2.3V16z"/>
		<path class="st1" d="M25.7,11v12.3H38V11H25.7z M36.2,21.6h-8.8v-8.8h8.8V21.6z"/>
		<path class="st1" d="M33,16h-2.3v2.3H33V16z"/>
		<path class="st1" d="M11,25.7V38h12.3V25.7H11z M21.6,36.2h-8.8v-8.8h8.8V36.2z"/>
		<path class="st1" d="M18.3,30.7H16V33h2.3V30.7z"/>
		<path class="st1" d="M29.2,27.4v-1.8h-3.5V38h3.5v-1.8h-1.8v-3.5h1.8V31h-1.8v-3.5H29.2z"/>
		<path class="st1" d="M38,25.7h-1.8v1.8H38V25.7z"/>
		<path class="st1" d="M36.2,29.8v6.5h-1.8V38H38v-8.2H36.2z"/>
		<path class="st1" d="M34.5,25.7H31v1.8h3.5V25.7z"/>
		<path class="st1" d="M34.5,31v-1.8H31v5.3h3.5v-1.8h-1.8V31H34.5z"/>
		<path class="st1" d="M32.7,36.2H31V38h1.8V36.2z"/>
	</g>
</g>
<rect x="0.5" y="0.5" class="st2" width="48" height="48"/>
</svg>
