<?xml version="1.0" encoding="utf-8"?>
<!-- Generator: Adobe Illustrator 24.0.3, SVG Export Plug-In . SVG Version: 6.00 Build 0)  -->
<svg version="1.1" id="Layer_1" xmlns="http://www.w3.org/2000/svg" xmlns:xlink="http://www.w3.org/1999/xlink" x="0px" y="0px"
	 viewBox="0 0 152 49" style="enable-background:new 0 0 152 49;" xml:space="preserve">
<style type="text/css">
	.st0{fill-rule:evenodd;clip-rule:evenodd;fill:#FFFFFF;}
	.st1{opacity:0.5;fill:#FFFFFF;enable-background:new    ;}
	.st2{fill:#FFFFFF;}
	.st3{opacity:0.5;fill:none;stroke:#FFFFFF;}
</style>
<path class="st0" d="M35.4,20.2L19.6,11l12.5,12.6L35.4,20.2z"/>
<path class="st0" d="M18.1,11.1c-0.1,0.1-0.1,0.2-0.1,0.4v26c0,0.1,0,0.2,0.1,0.2l13.2-13.4L18.1,11.1z"/>
<path class="st0" d="M32.1,25.1l-13,13.1c0,0,0.1,0,0.1-0.1l16.4-9.5L32.1,25.1z"/>
<path class="st0" d="M41.6,23.8l-5.2-3l-3.5,3.6l3.7,3.8l5-2.9C42.1,24.9,42.1,24.1,41.6,23.8z"/>
<path class="st1" d="M51.6,19v-7.1h2.2c0.6,0,1.2,0.1,1.7,0.4c0.5,0.3,0.9,0.7,1.2,1.2c0.3,0.5,0.4,1.1,0.4,1.8v0.3
	c0,0.7-0.1,1.2-0.4,1.8c-0.3,0.5-0.7,0.9-1.1,1.2C55,18.9,54.5,19,53.8,19H51.6z M53.1,13.1v4.7h0.7c0.6,0,1-0.2,1.3-0.6
	c0.3-0.4,0.5-0.9,0.5-1.6v-0.4c0-0.7-0.1-1.3-0.4-1.6c-0.3-0.4-0.7-0.6-1.3-0.6H53.1z M58.3,16.3c0-0.5,0.1-1,0.3-1.4
	c0.2-0.4,0.5-0.7,0.9-1c0.4-0.2,0.8-0.3,1.3-0.3c0.7,0,1.3,0.2,1.7,0.7c0.5,0.4,0.7,1,0.8,1.8l0,0.4c0,0.8-0.2,1.5-0.7,2
	c-0.5,0.5-1.1,0.7-1.8,0.7c-0.8,0-1.4-0.2-1.8-0.7C58.6,17.9,58.3,17.2,58.3,16.3L58.3,16.3z M59.7,16.4c0,0.5,0.1,0.9,0.3,1.2
	c0.2,0.3,0.5,0.4,0.8,0.4c0.3,0,0.6-0.1,0.8-0.4c0.2-0.3,0.3-0.7,0.3-1.3c0-0.5-0.1-0.9-0.3-1.1c-0.2-0.3-0.5-0.4-0.8-0.4
	c-0.3,0-0.6,0.1-0.8,0.4C59.8,15.4,59.7,15.8,59.7,16.4z M69.3,17.1l0.7-3.4h1.4L70,19h-1.2l-1-3.3l-1,3.3h-1.2l-1.3-5.3h1.4
	l0.7,3.4l1-3.4h1L69.3,17.1z M73.9,13.7l0,0.6c0.4-0.5,0.9-0.7,1.5-0.7c0.6,0,1,0.2,1.2,0.5c0.3,0.3,0.4,0.8,0.4,1.5V19h-1.4v-3.4
	c0-0.3-0.1-0.5-0.2-0.6c-0.1-0.1-0.3-0.2-0.6-0.2c-0.4,0-0.7,0.2-0.9,0.5V19h-1.4v-5.3H73.9z M80.1,19h-1.4v-7.5h1.4V19z M81.6,16.3
	c0-0.5,0.1-1,0.3-1.4c0.2-0.4,0.5-0.7,0.9-1c0.4-0.2,0.8-0.3,1.3-0.3c0.7,0,1.3,0.2,1.7,0.7c0.5,0.4,0.7,1,0.8,1.8l0,0.4
	c0,0.8-0.2,1.5-0.7,2c-0.5,0.5-1.1,0.7-1.8,0.7c-0.8,0-1.4-0.2-1.8-0.7C81.8,17.9,81.6,17.2,81.6,16.3L81.6,16.3z M83,16.4
	c0,0.5,0.1,0.9,0.3,1.2c0.2,0.3,0.5,0.4,0.8,0.4c0.3,0,0.6-0.1,0.8-0.4c0.2-0.3,0.3-0.7,0.3-1.3c0-0.5-0.1-0.9-0.3-1.1
	c-0.2-0.3-0.5-0.4-0.8-0.4c-0.3,0-0.6,0.1-0.8,0.4C83.1,15.4,83,15.8,83,16.4z M91,19c-0.1-0.1-0.1-0.3-0.1-0.5
	c-0.3,0.4-0.8,0.6-1.3,0.6c-0.5,0-0.9-0.1-1.3-0.4c-0.3-0.3-0.5-0.7-0.5-1.1c0-0.6,0.2-1,0.6-1.3c0.4-0.3,1-0.5,1.8-0.5h0.6v-0.3
	c0-0.2-0.1-0.4-0.2-0.6c-0.1-0.1-0.3-0.2-0.6-0.2c-0.2,0-0.4,0.1-0.6,0.2c-0.1,0.1-0.2,0.3-0.2,0.5h-1.4c0-0.3,0.1-0.6,0.3-0.8
	c0.2-0.3,0.5-0.5,0.8-0.6c0.3-0.1,0.7-0.2,1.2-0.2c0.7,0,1.2,0.2,1.5,0.5c0.4,0.3,0.6,0.8,0.6,1.4v2.3c0,0.5,0.1,0.9,0.2,1.1V19H91z
	 M89.9,18c0.2,0,0.4,0,0.6-0.1c0.2-0.1,0.3-0.2,0.4-0.4v-0.9h-0.5c-0.7,0-1.1,0.2-1.1,0.7l0,0.1c0,0.2,0.1,0.3,0.2,0.4
	C89.5,18,89.6,18,89.9,18z M93.6,16.3c0-0.8,0.2-1.5,0.6-2c0.4-0.5,0.9-0.7,1.5-0.7c0.5,0,0.9,0.2,1.3,0.6v-2.7h1.4V19h-1.3L97,18.4
	c-0.4,0.4-0.8,0.7-1.4,0.7c-0.6,0-1.1-0.2-1.5-0.7C93.8,17.9,93.6,17.2,93.6,16.3z M95,16.4c0,0.5,0.1,0.9,0.3,1.1
	c0.2,0.3,0.4,0.4,0.8,0.4c0.4,0,0.7-0.2,0.9-0.6v-2.1c-0.2-0.4-0.5-0.6-0.9-0.6C95.4,14.8,95,15.3,95,16.4z M103.3,19v-4.2h-0.8v-1
	h0.8v-0.4c0-0.6,0.2-1.1,0.5-1.4c0.3-0.3,0.8-0.5,1.4-0.5c0.2,0,0.4,0,0.7,0.1l0,1.1c-0.1,0-0.3,0-0.4,0c-0.5,0-0.8,0.2-0.8,0.7v0.4
	h1v1h-1V19H103.3z M106.8,16.3c0-0.5,0.1-1,0.3-1.4c0.2-0.4,0.5-0.7,0.9-1c0.4-0.2,0.8-0.3,1.3-0.3c0.7,0,1.3,0.2,1.7,0.7
	c0.5,0.4,0.7,1,0.8,1.8l0,0.4c0,0.8-0.2,1.5-0.7,2c-0.5,0.5-1.1,0.7-1.8,0.7c-0.8,0-1.4-0.2-1.8-0.7C107,17.9,106.8,17.2,106.8,16.3
	L106.8,16.3z M108.2,16.4c0,0.5,0.1,0.9,0.3,1.2c0.2,0.3,0.5,0.4,0.8,0.4c0.3,0,0.6-0.1,0.8-0.4c0.2-0.3,0.3-0.7,0.3-1.3
	c0-0.5-0.1-0.9-0.3-1.1s-0.5-0.4-0.8-0.4c-0.3,0-0.6,0.1-0.8,0.4C108.3,15.4,108.2,15.8,108.2,16.4z M116.2,15c-0.2,0-0.4,0-0.5,0
	c-0.5,0-0.9,0.2-1,0.5V19h-1.4v-5.3h1.3l0,0.6c0.3-0.5,0.7-0.7,1.2-0.7c0.2,0,0.3,0,0.4,0.1L116.2,15z"/>
<path class="st2" d="M60,34.7c-0.3,0.4-0.8,0.8-1.5,1c-0.7,0.2-1.4,0.4-2.2,0.4c-0.8,0-1.6-0.2-2.2-0.6c-0.6-0.4-1.2-1-1.5-1.7
	c-0.4-0.7-0.5-1.6-0.5-2.5V30c0-1.5,0.4-2.6,1.1-3.5c0.7-0.9,1.8-1.3,3-1.3c1.1,0,2,0.3,2.7,0.8c0.7,0.6,1.1,1.3,1.2,2.3h-0.9
	c-0.1-0.8-0.5-1.4-1-1.8c-0.5-0.4-1.2-0.6-2-0.6c-1,0-1.8,0.4-2.4,1.1c-0.6,0.7-0.9,1.7-0.9,3v1.3c0,0.8,0.1,1.5,0.4,2.2
	c0.3,0.6,0.7,1.1,1.2,1.4c0.5,0.3,1.1,0.5,1.8,0.5c0.8,0,1.4-0.1,2-0.4c0.4-0.2,0.6-0.3,0.8-0.6v-2.8h-2.9v-0.8H60V34.7z M62.2,31.9
	c0-0.8,0.1-1.4,0.4-2.1c0.3-0.6,0.7-1.1,1.3-1.4c0.5-0.3,1.2-0.5,1.8-0.5c1.1,0,1.9,0.4,2.6,1.1c0.7,0.7,1,1.7,1,2.9v0.2
	c0,0.8-0.1,1.5-0.4,2.1c-0.3,0.6-0.7,1.1-1.2,1.4c-0.5,0.3-1.1,0.5-1.8,0.5c-1,0-1.9-0.4-2.6-1.1c-0.7-0.7-1-1.7-1-2.9V31.9z
	 M63.1,32.2c0,0.9,0.2,1.7,0.7,2.3c0.5,0.6,1.1,0.9,1.9,0.9c0.8,0,1.4-0.3,1.9-0.9c0.5-0.6,0.7-1.4,0.7-2.4v-0.2
	c0-0.6-0.1-1.2-0.3-1.7c-0.2-0.5-0.5-0.9-0.9-1.2c-0.4-0.3-0.9-0.4-1.4-0.4c-0.8,0-1.4,0.3-1.9,0.9c-0.5,0.6-0.7,1.4-0.7,2.4V32.2z
	 M70.9,31.9c0-0.8,0.1-1.4,0.4-2.1c0.3-0.6,0.7-1.1,1.3-1.4c0.5-0.3,1.2-0.5,1.8-0.5c1.1,0,1.9,0.4,2.6,1.1c0.7,0.7,1,1.7,1,2.9v0.2
	c0,0.8-0.1,1.5-0.4,2.1c-0.3,0.6-0.7,1.1-1.2,1.4c-0.5,0.3-1.1,0.5-1.8,0.5c-1,0-1.9-0.4-2.6-1.1c-0.7-0.7-1-1.7-1-2.9V31.9z
	 M71.8,32.2c0,0.9,0.2,1.7,0.7,2.3c0.5,0.6,1.1,0.9,1.9,0.9c0.8,0,1.4-0.3,1.9-0.9c0.5-0.6,0.7-1.4,0.7-2.4v-0.2
	c0-0.6-0.1-1.2-0.3-1.7c-0.2-0.5-0.5-0.9-0.9-1.2c-0.4-0.3-0.9-0.4-1.4-0.4c-0.8,0-1.4,0.3-1.9,0.9C72,30.2,71.8,31,71.8,32V32.2z
	 M79.8,32c0-1.2,0.3-2.2,0.8-2.9c0.6-0.7,1.3-1.1,2.2-1.1c1.1,0,1.9,0.4,2.5,1.3l0-1.1h0.8v7.8c0,1-0.3,1.8-0.9,2.4
	s-1.3,0.9-2.3,0.9c-0.6,0-1.1-0.1-1.6-0.4c-0.5-0.2-0.9-0.6-1.2-1l0.5-0.5c0.6,0.8,1.4,1.1,2.2,1.1c0.7,0,1.3-0.2,1.7-0.7
	c0.4-0.4,0.6-1,0.6-1.8v-1c-0.6,0.8-1.4,1.2-2.5,1.2c-0.9,0-1.7-0.4-2.2-1.1c-0.6-0.7-0.8-1.7-0.8-3V32z M80.6,32.1
	c0,1,0.2,1.8,0.6,2.4c0.4,0.6,1,0.9,1.7,0.9c1.1,0,1.8-0.5,2.3-1.5v-3.7c-0.2-0.5-0.5-0.9-0.9-1.2c-0.4-0.3-0.8-0.4-1.4-0.4
	c-0.7,0-1.3,0.3-1.7,0.9C80.9,30.1,80.6,31,80.6,32.1z M89.7,36h-0.9V24.7h0.9V36z M95.5,36.1c-0.7,0-1.3-0.2-1.8-0.5
	c-0.5-0.3-1-0.8-1.3-1.4c-0.3-0.6-0.5-1.3-0.5-2v-0.3c0-0.8,0.1-1.4,0.4-2.1c0.3-0.6,0.7-1.1,1.2-1.4c0.5-0.4,1.1-0.5,1.7-0.5
	c1,0,1.7,0.3,2.3,1c0.6,0.7,0.8,1.6,0.8,2.7v0.5h-5.7v0.2c0,0.9,0.3,1.6,0.8,2.2c0.5,0.6,1.2,0.9,1.9,0.9c0.5,0,0.9-0.1,1.2-0.3
	c0.4-0.2,0.7-0.4,1-0.8l0.5,0.4C97.6,35.7,96.7,36.1,95.5,36.1z M95.3,28.7c-0.7,0-1.2,0.2-1.7,0.7c-0.4,0.5-0.7,1.1-0.8,1.9h4.8
	v-0.1c0-0.8-0.2-1.4-0.7-1.9C96.5,28.9,96,28.7,95.3,28.7z M105.5,31.7V36h-0.9V25.3h3.6c1.1,0,2,0.3,2.6,0.8c0.6,0.6,1,1.3,1,2.3
	c0,1-0.3,1.8-0.9,2.3c-0.6,0.5-1.5,0.8-2.7,0.8H105.5z M105.5,30.9h2.7c0.9,0,1.5-0.2,2-0.6c0.5-0.4,0.7-1,0.7-1.7
	c0-0.7-0.2-1.3-0.7-1.8c-0.5-0.4-1.1-0.7-1.9-0.7h-2.8V30.9z M114.9,36H114V24.7h0.9V36z M122.6,36c-0.1-0.2-0.1-0.6-0.2-1.1
	c-0.3,0.4-0.7,0.7-1.2,0.9c-0.5,0.2-1,0.3-1.5,0.3c-0.8,0-1.4-0.2-1.9-0.6c-0.5-0.4-0.7-1-0.7-1.6c0-0.8,0.3-1.4,1-1.8
	c0.6-0.4,1.5-0.7,2.7-0.7h1.6v-0.9c0-0.6-0.2-1-0.5-1.3c-0.3-0.3-0.9-0.5-1.5-0.5c-0.6,0-1.1,0.2-1.5,0.5s-0.6,0.7-0.6,1.1l-0.9,0
	c0-0.6,0.3-1.2,0.9-1.6c0.6-0.5,1.3-0.7,2.2-0.7c0.9,0,1.6,0.2,2.1,0.7c0.5,0.4,0.8,1.1,0.8,1.8v3.7c0,0.8,0.1,1.3,0.2,1.7V36H122.6
	z M119.9,35.4c0.6,0,1.1-0.1,1.6-0.4c0.5-0.3,0.8-0.7,1-1.1v-1.7h-1.6c-0.9,0-1.6,0.2-2.1,0.5c-0.5,0.3-0.7,0.7-0.7,1.3
	c0,0.4,0.2,0.8,0.5,1.1C118.9,35.2,119.3,35.4,119.9,35.4z M128.3,34.7l2.3-6.7h0.9l-3.4,9.3l-0.2,0.4c-0.4,1-1.1,1.4-2,1.4
	c-0.2,0-0.4,0-0.7-0.1l0-0.7l0.5,0c0.4,0,0.8-0.1,1-0.3c0.3-0.2,0.5-0.6,0.7-1.1l0.4-1.1l-3-7.9h1L128.3,34.7z"/>
<rect x="0.5" y="0.5" class="st3" width="151" height="48"/>
</svg>
