<svg width="16" height="16" viewBox="0 0 16 16" fill="none" xmlns="http://www.w3.org/2000/svg">
<path d="M12 0H4C1.80078 0 0 1.80078 0 4V12C0 14.1992 1.80078 16 4 16H12C14.1992 16 16 14.1992 16 12V4C16 1.80078 14.1992 0 12 0ZM14.668 12C14.668 13.4688 13.4727 14.668 12 14.668H4C2.53125 14.668 1.33203 13.4727 1.33203 12V4C1.33203 2.53125 2.52734 1.33203 4 1.33203H12C13.4727 1.33203 14.668 2.52734 14.668 4V12Z" fill="white"/>
<path d="M12.3359 4.66797C12.8882 4.66797 13.3359 4.22025 13.3359 3.66797C13.3359 3.11568 12.8882 2.66797 12.3359 2.66797C11.7837 2.66797 11.3359 3.11568 11.3359 3.66797C11.3359 4.22025 11.7837 4.66797 12.3359 4.66797Z" fill="white"/>
<path d="M8 4C5.78906 4 4 5.78906 4 8C4 10.207 5.78906 12 8 12C10.207 12 12 10.207 12 8C12 5.78906 10.2109 4 8 4ZM8 10.668C6.52734 10.668 5.33203 9.47266 5.33203 8C5.33203 6.52734 6.52734 5.33203 8 5.33203C9.47266 5.33203 10.668 6.52734 10.668 8C10.668 9.47266 9.47266 10.668 8 10.668Z" fill="white"/>
</svg>
