<svg width="16" height="16" viewBox="0 0 16 16" fill="none" xmlns="http://www.w3.org/2000/svg">
<g clip-path="url(#clip0)">
<path d="M15.9969 15.9998H16V10.1311C16 7.25918 15.3813 5.0498 12.025 5.0498C10.4125 5.0498 9.32817 5.93418 8.88754 6.7748H8.84067V5.31855H5.65942V15.9998H8.97192V10.7092C8.97192 9.31543 9.23442 7.96855 10.9594 7.96855C12.6594 7.96855 12.6844 9.55918 12.6844 10.7967V15.9998H15.9969Z" fill="white"/>
<path d="M0.262451 5.31885H3.5812V16.0001H0.262451V5.31885Z" fill="white"/>
<path d="M1.92188 0C0.859375 0 0 0.859375 0 1.92188C0 2.98438 0.859375 3.8625 1.92188 3.8625C2.98438 3.8625 3.84375 2.98125 3.84375 1.92188C3.84063 0.859375 2.98125 0 1.92188 0Z" fill="white"/>
</g>
<defs>
<clipPath id="clip0">
<rect width="16" height="16" fill="white"/>
</clipPath>
</defs>
</svg>
