<svg width="220" height="44" viewBox="0 0 220 44" fill="none" xmlns="http://www.w3.org/2000/svg">
  <path d="M22.1706 42.4939H32.4031C32.4031 37.8062 37.6217 31.1046 37.6217 21.0015C37.6217 12.4046 36.2062 7.75077 35.3365 5.58462C34.6372 3.79078 33.8016 2.77539 32.062 2.77539C30.3225 2.77539 28.6512 3.45231 28.1225 7.41231C26.7752 19.2246 21.5054 26.0615 22.1706 42.4939Z" fill="#FBFBFB"/>
  <path d="M32.8465 42.917H21.8124V42.5108C21.4861 34.6691 22.5837 26.8331 25.0527 19.377C26.285 15.4539 27.1807 11.4345 27.7302 7.36159C28.1395 3.97698 29.4356 2.28467 32.0961 2.28467C34.262 2.28467 35.1488 3.75698 35.7798 5.36467C37.4706 10.3781 38.2501 15.6498 38.0821 20.9339C37.9117 26.0574 36.7539 31.1011 34.6713 35.7924C33.6945 37.8883 33.0723 40.1296 32.8294 42.4262L32.8465 42.917ZM22.6139 42.0708H31.9938C32.3213 39.8159 32.9642 37.6172 33.9038 35.5385C35.9269 30.9334 37.0497 25.9888 37.2124 20.9677C37.3795 15.7984 36.6172 10.6409 34.9612 5.73698C34.2279 3.85851 33.4604 3.19851 32.079 3.19851C30.6976 3.19851 29.0093 3.70621 28.5659 7.46313C28.0053 11.5814 27.0982 15.6458 25.8542 19.6139C23.4498 26.8515 22.3585 34.4549 22.631 42.0708H22.6139Z" fill="#232323"/>
  <path d="M20.6868 42.4939H10.4542C10.4542 37.8062 5.33795 31.1046 5.33795 21.0015C5.10138 15.7717 5.84741 10.5437 7.53795 5.58462C8.25423 3.79078 9.07283 2.77539 10.8124 2.77539C12.5519 2.77539 14.2232 3.45231 14.7519 7.41231C16.1333 19.2246 21.386 26.0615 20.6868 42.4939Z" fill="#FBFBFB"/>
  <path d="M21.079 42.9169H10.0449V42.4938C9.80209 40.1972 9.17981 37.956 8.20307 35.86C6.12044 31.1687 4.96263 26.125 4.79222 21.0015C4.6213 15.7159 5.40686 10.4428 7.1116 5.4323C7.74261 3.73999 8.62943 2.35229 10.7783 2.35229C13.3535 2.35229 14.7519 3.94306 15.1442 7.42922C15.6913 11.504 16.5928 15.5241 17.8387 19.4446C20.3077 26.9008 21.4053 34.7368 21.079 42.5784V42.9169ZM10.8465 42.0708H20.2263C20.5179 34.4578 19.4438 26.8539 17.0542 19.6138C15.7969 15.6425 14.884 11.5718 14.3256 7.44614C13.8992 3.68922 12.3132 3.19845 10.8124 3.19845C9.3116 3.19845 8.68059 3.85845 7.93021 5.73691C6.27422 10.6409 5.51192 15.7984 5.67904 20.9677C5.86865 25.9961 7.02644 30.942 9.08989 35.5384C9.96195 37.6265 10.536 39.8252 10.7953 42.0708H10.8465Z" fill="#232323"/>
  <path d="M21.5054 42.7477H21.2496C17.0543 42.7477 14.0698 38.28 13.6434 31.1046C13.3194 25.0631 12.586 12.9123 12.1767 7.63229C11.938 5.22921 11.2217 5.22921 10.7101 5.22921C10.1985 5.22921 9.55039 5.87229 9.12403 7.44613C7.89893 12.5693 7.46762 17.8479 7.84496 23.1C8.28631 26.9875 9.2975 30.7902 10.8465 34.3877C12.0559 36.9328 12.7952 39.6726 13.0295 42.4769H12.1767C11.9483 39.7811 11.244 37.1461 10.0961 34.6923C8.51472 31.0259 7.48611 27.1484 7.04341 23.1846C6.66897 17.8298 7.11169 12.4497 8.35659 7.22613C8.73179 5.82152 9.31163 4.38306 10.7612 4.38306C12.2109 4.38306 12.893 5.33075 13.0806 7.56459C13.4899 12.8615 14.2233 25.0123 14.5473 31.0538C14.8202 36.3 16.7302 41.9015 21.2496 41.9015H21.5054C26.1612 41.9015 28.1054 36.0631 28.3271 31.0538C28.6682 24.7584 29.3674 12.8277 29.7938 7.56459C29.9814 5.33075 30.6806 4.38306 32.0961 4.38306C33.5116 4.38306 34.1085 5.75383 34.569 7.22613C35.7746 12.4499 36.1942 17.822 35.814 23.1677C35.372 27.148 34.3435 31.0424 32.7612 34.7261C31.6184 37.1927 30.92 39.8388 30.6977 42.5446H29.845C30.0715 39.7341 30.7931 36.9847 31.9767 34.4215C33.526 30.8123 34.5371 26.9984 34.9783 23.1C35.3384 17.8479 34.9074 12.572 33.6992 7.44613C33.1876 5.60152 32.693 5.22921 32.0961 5.22921C31.4992 5.22921 30.8512 5.22921 30.6465 7.63229C30.2202 12.8784 29.5209 24.8092 29.1798 31.1046C28.8558 38.1784 25.8202 42.7477 21.5054 42.7477Z" fill="#232323"/>
  <path d="M25.5814 4.02769V4.19692C25.0397 4.15248 24.4948 4.22642 23.985 4.41355C23.4753 4.60068 23.0131 4.89644 22.631 5.28C22.2555 5.66797 21.9652 6.12895 21.7783 6.63385C21.6053 7.14547 21.5414 7.68719 21.5907 8.22462H21.3519C21.4043 7.68585 21.3344 7.14226 21.1473 6.63385C20.9759 6.12155 20.6835 5.65735 20.2945 5.28C19.9134 4.89932 19.4538 4.6049 18.9473 4.41692C18.4402 4.23322 17.8996 4.15823 17.3612 4.19692V4.02769C17.8969 4.06255 18.4335 3.97573 18.9302 3.77385C19.4286 3.58149 19.8774 3.2808 20.2434 2.89385C20.6168 2.51401 20.9021 2.0577 21.079 1.55692C21.2522 1.05705 21.3162 0.526305 21.2666 0H21.5054C21.4435 0.570927 21.5075 1.14837 21.693 1.69231C21.8815 2.20935 22.1845 2.67779 22.5798 3.06308C22.9691 3.45012 23.4412 3.74512 23.9612 3.92615C24.4807 4.10644 25.0341 4.17002 25.5814 4.11231V4.02769Z" fill="white"/>
  <path d="M42.9938 42.1384H0V42.9846H42.9938V42.1384Z" fill="#232323"/>
  <path d="M211.473 14.2831C209.785 14.2834 208.136 14.7804 206.734 15.7112C205.331 16.6421 204.238 17.9649 203.594 19.5123C202.94 21.0624 202.766 22.7706 203.094 24.4192C203.422 26.0678 204.237 27.5821 205.436 28.7692C206.629 29.9236 208.133 30.7111 209.767 31.0369C211.415 31.3732 213.127 31.2081 214.679 30.5631C216.498 29.8163 218 28.468 218.931 26.7471C219.863 25.0262 220.165 23.0386 219.788 21.1215C219.41 19.2045 218.376 17.4762 216.86 16.2297C215.345 14.9832 213.441 14.2955 211.473 14.2831ZM211.473 29.0231C210.238 29.0223 209.032 28.6564 208.009 27.9721C206.985 27.2879 206.19 26.3163 205.725 25.1815C205.251 24.0532 205.126 22.8099 205.367 21.6108C205.602 20.4096 206.196 19.3066 207.073 18.4462C207.724 17.7996 208.513 17.3047 209.381 16.9972C210.248 16.6896 211.174 16.5772 212.091 16.6678C213.008 16.7585 213.893 17.0501 214.683 17.5215C215.473 17.9929 216.147 18.6324 216.657 19.3939C217.34 20.3932 217.708 21.5712 217.715 22.7785C217.719 23.5955 217.561 24.4054 217.25 25.1617C216.938 25.918 216.479 26.606 215.9 27.186C215.32 27.7661 214.63 28.227 213.871 28.5422C213.111 28.8575 212.296 29.0209 211.473 29.0231Z" fill="white"/>
  <path d="M114.571 14.283C113.515 14.3239 112.495 14.6757 111.642 15.2935C110.789 15.9113 110.14 16.7673 109.778 17.7523V14.96H102.633V17.2953H107.442V28.4307H102.633V30.7661H115.747V28.4307H109.812V21.3738C109.812 20.3076 110.733 16.4661 113.94 16.4661C114.393 16.4324 114.848 16.5019 115.27 16.6692C115.694 16.8198 116.078 17.0627 116.395 17.38C116.164 17.6955 116.033 18.0728 116.02 18.463C116.02 18.9523 116.216 19.4214 116.565 19.7674C116.913 20.1133 117.386 20.3076 117.879 20.3076C118.134 20.3098 118.385 20.2518 118.612 20.1384C118.835 20.033 119.037 19.8898 119.209 19.7153C119.381 19.5286 119.515 19.3101 119.602 19.0723C119.673 18.8307 119.702 18.5789 119.687 18.3276C119.487 17.146 118.854 16.0793 117.91 15.3327C116.965 14.5861 115.776 14.2122 114.571 14.283Z" fill="white"/>
  <path d="M175.659 14.2831C174.612 14.3205 173.599 14.6608 172.745 15.2622C171.89 15.8635 171.231 16.6997 170.85 17.6677V14.96H163.721V17.2954H168.547V28.4139H163.721V30.7492H176.836V28.4139H170.901V21.34C170.901 20.2739 171.822 16.4323 175.028 16.4323C175.481 16.3974 175.936 16.4669 176.358 16.6354C176.783 16.7925 177.167 17.041 177.484 17.3631C177.239 17.6654 177.107 18.0417 177.109 18.4292C177.097 18.9107 177.275 19.3778 177.603 19.7323C177.942 20.0756 178.398 20.2808 178.882 20.3077C179.145 20.3135 179.405 20.2675 179.65 20.1723C179.889 20.0715 180.104 19.9215 180.281 19.7323C180.467 19.5467 180.607 19.3208 180.69 19.0723C180.741 18.821 180.741 18.5621 180.69 18.3108C180.493 17.1288 179.861 16.0617 178.915 15.3172C177.969 14.5727 176.778 14.2041 175.574 14.2831H175.659Z" fill="white"/>
  <path d="M136.622 21.7292C137.115 21.7292 137.588 21.5349 137.936 21.189C138.285 20.843 138.481 20.3738 138.481 19.8846V19.6477C138.242 17.5323 134.916 14.2831 130.653 14.2831C128.369 14.2831 126.178 15.1835 124.563 16.7862C122.948 18.3889 122.04 20.5627 122.04 22.8292C122.04 25.0958 122.948 27.2696 124.563 28.8723C126.178 30.475 128.369 31.3754 130.653 31.3754C132.23 31.3775 133.778 30.9573 135.135 30.1591C136.492 29.3609 137.606 28.2142 138.361 26.84L136.434 25.5708C135.862 26.6115 135.02 27.4819 133.995 28.0923C132.962 28.7007 131.786 29.0276 130.584 29.04C128.979 28.9569 127.466 28.2654 126.36 27.1081C125.253 25.9509 124.636 24.4163 124.636 22.8208C124.636 21.2253 125.253 19.6906 126.36 18.5334C127.466 17.3762 128.979 16.6847 130.584 16.6015C131.476 16.5629 132.366 16.7239 133.186 17.0725C134.007 17.4211 134.738 17.9484 135.326 18.6154C134.997 18.9578 134.814 19.4121 134.814 19.8846C134.791 20.1285 134.822 20.3743 134.905 20.6051C134.987 20.8359 135.119 21.0463 135.291 21.2215C135.468 21.3949 135.676 21.5328 135.905 21.6277C136.134 21.712 136.378 21.7466 136.622 21.7292Z" fill="white"/>
  <path d="M194.572 17.2953H196.499L192.321 28.0246L187.75 17.2953H189.729V14.96H182.907V17.2953H185.278L191.127 31.1723L187.887 39.4815H190.394L199.023 17.3123H201.479V14.9769H194.657V17.2953H194.572Z" fill="white"/>
  <path d="M77.5968 21.0016C77.681 20.1446 77.5822 19.2797 77.3069 18.4631C77.0353 17.6426 76.5938 16.8874 76.0108 16.2462C75.4176 15.6171 74.7047 15.1109 73.9131 14.757C73.1185 14.4073 72.2583 14.2285 71.3891 14.2324C70.1699 14.3114 68.9933 14.7083 67.9782 15.3831C66.9272 16.0577 66.0835 17.0061 65.5394 18.1247C65.0928 16.9583 64.2873 15.9611 63.2373 15.2746C62.1873 14.5881 60.9461 14.2471 59.6898 14.3001C58.5628 14.3267 57.4628 14.6478 56.5007 15.2308C55.5467 15.8243 54.7695 16.6598 54.2495 17.6508V14.9601H49.4573V17.2954H51.9643V30.8339H54.3177V21.3401C54.4546 20.0442 55.0605 18.8416 56.0232 17.9554C56.9421 17.0649 58.1522 16.5306 59.434 16.4493C60.6426 16.5402 61.7658 17.1021 62.5582 18.0121C63.3507 18.9222 63.7481 20.1064 63.6635 21.3062V30.7493H66.017V21.3062C66.0888 20.0215 66.6496 18.8117 67.586 17.9216C68.5413 17.0166 69.8124 16.5133 71.1332 16.517C71.7254 16.5369 72.3067 16.6811 72.8387 16.9401C73.3805 17.178 73.8636 17.5303 74.2542 17.9724C74.6493 18.4162 74.9509 18.9341 75.141 19.4954C75.33 20.0387 75.4054 20.6146 75.3627 21.1877V30.8001H80.1549V28.4647H77.5968V21.0016Z" fill="white"/>
  <path d="M91.3256 14.2831C90.199 14.2723 89.081 14.4792 88.0341 14.8923C87.0014 15.316 86.0627 15.9371 85.2713 16.72C84.4624 17.5025 83.8239 18.4413 83.3954 19.4785C82.9546 20.5118 82.7284 21.6226 82.7302 22.7447V23.6923C82.9429 25.5301 83.7405 27.2528 85.0071 28.6101C86.2737 29.9674 87.9434 30.8886 89.7736 31.24C91.6011 31.5904 93.4934 31.3545 95.1767 30.5665C96.86 29.7785 98.2469 28.4793 99.1364 26.857L97.2093 25.52C96.6305 26.5461 95.7865 27.4005 94.7644 27.9954C93.7422 28.5903 92.5788 28.9041 91.3938 28.9047C89.898 28.9102 88.4485 28.3897 87.3027 27.4355C86.1569 26.4813 85.3889 25.1551 85.1349 23.6923H99.5969C99.614 23.4049 99.614 23.1167 99.5969 22.8293C99.6316 21.7267 99.446 20.6282 99.0508 19.5971C98.6557 18.566 98.0588 17.6227 97.2946 16.8216C96.5162 16.026 95.5894 15.3881 94.5659 14.9431C93.5396 14.5153 92.4388 14.2911 91.3256 14.2831ZM85.2713 21.2893C85.6084 19.9233 86.399 18.7097 87.5159 17.844C88.6327 16.9783 90.0107 16.5108 91.4279 16.517C92.7996 16.5243 94.1262 17.0042 95.1808 17.8747C96.2353 18.7452 96.9524 19.9522 97.2093 21.2893H85.2713Z" fill="white"/>
  <path d="M157.547 14.96H155.194V24.3015C155.099 25.6168 154.529 26.8541 153.59 27.7865C152.65 28.7189 151.403 29.2841 150.078 29.3784C148.901 29.278 147.808 28.7327 147.025 27.8553C146.239 26.9841 145.829 25.8418 145.882 24.6738V14.96H141.005V17.2953H143.529V24.7415C143.457 25.5897 143.568 26.4433 143.853 27.2461C144.278 28.4542 145.074 29.4993 146.13 30.2341C147.186 30.9689 148.447 31.3563 149.736 31.3415C150.824 31.3049 151.886 31.0109 152.835 30.4839C153.785 29.957 154.593 29.2124 155.194 28.3123V30.7661H160.054V28.4307H157.53L157.547 14.96Z" fill="white"/>
</svg>
