<svg width="162" height="43" viewBox="0 0 162 43" fill="none" xmlns="http://www.w3.org/2000/svg">
  <path d="M49.544 24.2951C49.0931 23.514 48.8557 22.6281 48.8557 21.7262C48.8557 20.8243 49.0931 19.9384 49.544 19.1573C49.997 18.3903 50.6535 17.7636 51.4407 17.3467C52.2819 16.9182 53.2126 16.6948 54.1567 16.6948C55.1008 16.6948 56.0315 16.9182 56.8727 17.3467C57.6572 17.7674 58.3127 18.3932 58.7694 19.1573C59.2349 19.9316 59.4747 20.8206 59.4619 21.7239C59.4763 22.619 59.2418 23.5005 58.7846 24.2702C58.3274 25.0399 57.6656 25.6675 56.8727 26.0831C56.0315 26.5116 55.1008 26.7349 54.1567 26.7349C53.2126 26.7349 52.2819 26.5116 51.4407 26.0831C50.6552 25.6741 49.9986 25.0551 49.544 24.2951ZM56.7867 23.3309C57.0453 22.8355 57.1804 22.285 57.1804 21.7262C57.1804 21.1674 57.0453 20.6169 56.7867 20.1215C56.533 19.6604 56.1571 19.2782 55.7003 19.017C55.2244 18.7587 54.6914 18.6234 54.1499 18.6234C53.6084 18.6234 53.0755 18.7587 52.5995 19.017C52.1427 19.2782 51.7668 19.6604 51.5131 20.1215C51.2545 20.6169 51.1195 21.1674 51.1195 21.7262C51.1195 22.285 51.2545 22.8355 51.5131 23.3309C51.7657 23.7916 52.142 24.1726 52.5995 24.4309C53.0755 24.6892 53.6084 24.8245 54.1499 24.8245C54.6914 24.8245 55.2244 24.6892 55.7003 24.4309C56.1612 24.1739 56.5407 23.7928 56.7957 23.3309H56.7867Z" fill="white"/>
  <path d="M72.3044 26.572H69.8962L67.7642 20.0083L65.5642 26.572H63.1696L60.001 16.8804H62.3277L64.5141 23.6704L66.8 16.8804H68.8777L71.0686 23.7338L73.332 16.8668H75.4776L72.3044 26.572Z" fill="white"/>
  <path d="M85.6034 26.5718H83.7429L78.913 20.6872V26.5718H76.6995V16.8802H78.5554L83.3717 22.7649V16.8802H85.5853L85.6034 26.5718Z" fill="white"/>
  <path d="M92.2036 23.8695H90.1439V26.5855H87.8806V16.8804H92.0768C92.8443 16.8632 93.6066 17.0098 94.313 17.3104C94.9169 17.5632 95.4294 17.9941 95.782 18.5457C96.1346 19.0973 96.3107 19.7434 96.2866 20.3976C96.3026 21.0558 96.1213 21.7037 95.766 22.2581C95.4009 22.7926 94.8882 23.2094 94.2904 23.4576L96.4632 26.572H94.055L92.2036 23.8695ZM91.9682 18.7092H90.1575V22.086H91.9682C92.5185 22.1208 93.0634 21.9605 93.5072 21.6334C93.6834 21.4793 93.8222 21.2871 93.9132 21.0715C94.0042 20.8558 94.0449 20.6223 94.0323 20.3885C94.0467 20.1533 94.0068 19.9179 93.9157 19.7005C93.8247 19.4831 93.6849 19.2895 93.5072 19.1347C93.0588 18.8192 92.515 18.6689 91.9682 18.7092Z" fill="white"/>
  <path d="M113.949 26.572H111.541L109.409 20.0083L107.209 26.572H104.815L101.646 16.8804H103.973L106.159 23.6704L108.445 16.8804H110.518L112.714 23.7338L114.977 16.8668H117.123L113.949 26.572Z" fill="white"/>
  <path d="M119.925 24.4941L119.051 26.5718H116.788L121.106 16.8802H123.32L127.652 26.5718H125.298L124.438 24.4941H119.925ZM122.188 19.0621L120.649 22.774H123.722L122.188 19.0621Z" fill="white"/>
  <path d="M130.888 16.8802V24.743H135.745V26.5537H128.643V16.8802H130.888Z" fill="white"/>
  <path d="M139.249 16.8802V24.743H144.106V26.5537H137.004V16.8802H139.249Z" fill="white"/>
  <path d="M152.865 26.5718H145.364V16.8802H152.684V18.6909H147.591V20.7913H152.095V22.5386H147.596V24.7793H152.865V26.5718Z" fill="white"/>
  <path d="M153.558 18.7092V16.8986H162V18.7092H158.886V26.572H156.645V18.7092H153.558Z" fill="white"/>
  <path d="M21.1123 42.6234C32.7723 42.6234 42.2246 33.1711 42.2246 21.5111C42.2246 9.85111 32.7723 0.398804 21.1123 0.398804C9.45231 0.398804 0 9.85111 0 21.5111C0 33.1711 9.45231 42.6234 21.1123 42.6234Z" fill="url(#paint0_linear)"/>
  <path fill-rule="evenodd" clip-rule="evenodd" d="M8.04852 34.575C5.46537 31.9914 3.70634 28.6997 2.99385 25.1164C2.28136 21.533 2.64742 17.8188 4.04573 14.4435C5.44404 11.0682 7.81181 8.18327 10.8496 6.15357C13.8875 4.12387 17.4589 3.04053 21.1124 3.04053C24.766 3.04053 28.3374 4.12387 31.3753 6.15357C34.4131 8.18327 36.7809 11.0682 38.1792 14.4435C39.5775 17.8188 39.9435 21.533 39.231 25.1164C38.5186 28.6997 36.7595 31.9914 34.1764 34.575C30.7107 38.0381 26.0118 39.9833 21.1124 39.9833C16.2131 39.9833 11.5142 38.0381 8.04852 34.575ZM10.3481 32.2845C12.4794 34.4165 15.1951 35.8685 18.1518 36.4569C21.1084 37.0454 24.1731 36.7438 26.9583 35.5903C29.7436 34.4369 32.1242 32.4834 33.7991 29.9769C35.474 27.4704 36.368 24.5235 36.368 21.5088C36.368 18.4942 35.474 15.5473 33.7991 13.0408C32.1242 10.5343 29.7436 8.58082 26.9583 7.42737C24.1731 6.27392 21.1084 5.97234 18.1518 6.56077C15.1951 7.1492 12.4794 8.6012 10.3481 10.7331C8.93269 12.1481 7.80993 13.828 7.04391 15.6769C6.27789 17.5258 5.88362 19.5075 5.88362 21.5088C5.88362 23.5102 6.27789 25.4919 7.04391 27.3408C7.80993 29.1897 8.93269 30.8696 10.3481 32.2845ZM24.4124 31.4879V27.7715C24.4207 26.3947 24.9723 25.0768 25.9471 24.1046C26.9219 23.1323 28.2412 22.5842 29.618 22.5794V25.8024C29.0926 25.8036 28.589 26.0128 28.2174 26.3844C27.8458 26.756 27.6365 27.2596 27.6354 27.7851V31.5014L24.4124 31.4879ZM12.3217 27.7805C12.3217 26.3999 12.8701 25.0758 13.8464 24.0996C14.8226 23.1233 16.1467 22.5749 17.5273 22.5749C18.908 22.5749 20.232 23.1233 21.2083 24.0996C22.1845 25.0758 22.733 26.3999 22.733 27.7805V31.4969H19.51V27.7805C19.51 27.2547 19.3011 26.7504 18.9293 26.3786C18.5575 26.0067 18.0532 25.7979 17.5273 25.7979C17.0015 25.7979 16.4972 26.0067 16.1254 26.3786C15.7535 26.7504 15.5447 27.2547 15.5447 27.7805V31.4969H12.3217V27.7805ZM26.7074 15.7894V12.0776H29.9213V15.7894C29.9229 16.8089 29.6247 17.8063 29.0636 18.6575C28.5026 19.5087 27.7036 20.176 26.7661 20.5765C25.8286 20.977 24.794 21.0929 23.7912 20.9097C22.7883 20.7266 21.8615 20.2525 21.126 19.5465C20.1646 20.4797 18.8762 20.9996 17.5364 20.9951C16.8512 20.9969 16.1724 20.8636 15.5387 20.6029C14.9051 20.3422 14.329 19.9592 13.8435 19.4757C13.3579 18.9923 12.9724 18.4179 12.7089 17.7854C12.4455 17.1528 12.3093 16.4746 12.3081 15.7894V12.0776H15.5311V15.7894C15.5554 16.2995 15.7752 16.7806 16.1448 17.1329C16.5144 17.4852 17.0054 17.6818 17.516 17.6818C18.0266 17.6818 18.5177 17.4852 18.8872 17.1329C19.2568 16.7806 19.4766 16.2995 19.501 15.7894V12.0776H22.7239V15.7894C22.7239 16.3177 22.9338 16.8243 23.3073 17.1978C23.6808 17.5713 24.1874 17.7811 24.7157 17.7811C25.2439 17.7811 25.7505 17.5713 26.124 17.1978C26.4975 16.8243 26.7074 16.3177 26.7074 15.7894Z" fill="url(#paint1_linear)"/>
  <defs>
    <linearGradient id="paint0_linear" x1="31.6775" y1="40.1247" x2="10.6014" y2="2.98352" gradientUnits="userSpaceOnUse">
      <stop stop-color="#5F46F9"/>
      <stop offset="1" stop-color="#9B9FFF"/>
    </linearGradient>
    <linearGradient id="paint1_linear" x1="30.3559" y1="37.798" x2="11.9143" y2="5.30116" gradientUnits="userSpaceOnUse">
      <stop stop-color="#DAD9ED"/>
      <stop offset="1" stop-color="white"/>
    </linearGradient>
  </defs>
</svg>
