<svg width="19" height="16" viewBox="0 0 19 16" fill="none" xmlns="http://www.w3.org/2000/svg">
<path d="M0.929568 7.67194L5.16393 9.25234L6.80289 14.5232C6.90776 14.8608 7.32056 14.9856 7.59456 14.7616L9.95487 12.8374C10.2023 12.6358 10.5547 12.6258 10.8132 12.8134L15.0704 15.9042C15.3635 16.1173 15.7788 15.9567 15.8523 15.6025L18.9709 0.601498C19.0511 0.214607 18.6709 -0.108149 18.3026 0.0343316L0.924606 6.73822C0.495754 6.90361 0.499491 7.51078 0.929568 7.67194ZM6.53876 8.41105L14.8143 3.31415C14.963 3.22282 15.116 3.42392 14.9883 3.54239L8.1586 9.89093C7.91854 10.1144 7.76369 10.4134 7.71983 10.738L7.48718 12.4621C7.45637 12.6923 7.133 12.7152 7.06948 12.4924L6.17471 9.34845C6.07223 8.98986 6.22157 8.60683 6.53876 8.41105Z" fill="white"/>
</svg>
